<svg xmlns="http://www.w3.org/2000/svg" viewBox="0 0 512 512">
  <defs>
    <linearGradient id="lib" x1="0" y1="0" x2="0" y2="1">
      <stop offset="0%" stop-color="#3D2910"/>
      <stop offset="100%" stop-color="#5C4420"/>
    </linearGradient>
  </defs>
  <rect width="512" height="512" fill="#2C1810"/>
  <!-- Bookshelves -->
  <g fill="#5C3A1E" stroke="#4A2A10" stroke-width="2">
    <rect x="10" y="10" width="150" height="492" rx="5"/>
    <rect x="180" y="10" width="150" height="492" rx="5"/>
    <rect x="350" y="10" width="150" height="492" rx="5"/>
  </g>
  <!-- Shelves -->
  <g stroke="#4A2A10" stroke-width="3">
    <line x1="15" y1="120" x2="155" y2="120"/>
    <line x1="15" y1="240" x2="155" y2="240"/>
    <line x1="15" y1="360" x2="155" y2="360"/>
    <line x1="185" y1="120" x2="325" y2="120"/>
    <line x1="185" y1="240" x2="325" y2="240"/>
    <line x1="185" y1="360" x2="325" y2="360"/>
    <line x1="355" y1="120" x2="495" y2="120"/>
    <line x1="355" y1="240" x2="495" y2="240"/>
    <line x1="355" y1="360" x2="495" y2="360"/>
  </g>
  <!-- Books - left shelf -->
  <g>
    <rect x="20" y="20" width="12" height="94" rx="1" fill="#C0392B"/>
    <rect x="36" y="20" width="10" height="94" rx="1" fill="#2980B9"/>
    <rect x="50" y="30" width="14" height="84" rx="1" fill="#27AE60"/>
    <rect x="68" y="25" width="8" height="89" rx="1" fill="#F39C12"/>
    <rect x="80" y="20" width="11" height="94" rx="1" fill="#8E44AD"/>
    <rect x="95" y="35" width="13" height="79" rx="1" fill="#E74C3C"/>
    <rect x="112" y="20" width="9" height="94" rx="1" fill="#1ABC9C"/>
    <rect x="125" y="28" width="12" height="86" rx="1" fill="#D35400"/>
    <rect x="141" y="20" width="10" height="94" rx="1" fill="#2C3E50"/>
  </g>
  <!-- Books - middle shelf -->
  <g>
    <rect x="185" y="20" width="14" height="94" rx="1" fill="#C0392B"/>
    <rect x="203" y="22" width="10" height="92" rx="1" fill="#2980B9"/>
    <rect x="217" y="18" width="12" height="96" rx="1" fill="#F39C12"/>
    <rect x="233" y="25" width="9" height="89" rx="1" fill="#27AE60"/>
    <rect x="246" y="20" width="13" height="94" rx="1" fill="#9B59B6"/>
    <rect x="263" y="30" width="11" height="84" rx="1" fill="#E67E22"/>
    <rect x="278" y="20" width="10" height="94" rx="1" fill="#1ABC9C"/>
    <rect x="292" y="24" width="12" height="90" rx="1" fill="#E74C3C"/>
    <rect x="308" y="20" width="10" height="94" rx="1" fill="#34495E"/>
  </g>
  <!-- Books - right shelf -->
  <g>
    <rect x="355" y="20" width="11" height="94" rx="1" fill="#8E44AD"/>
    <rect x="370" y="28" width="13" height="86" rx="1" fill="#D35400"/>
    <rect x="387" y="20" width="9" height="94" rx="1" fill="#2980B9"/>
    <rect x="400" y="32" width="12" height="82" rx="1" fill="#C0392B"/>
    <rect x="416" y="20" width="8" height="94" rx="1" fill="#27AE60"/>
    <rect x="428" y="25" width="14" height="89" rx="1" fill="#F39C12"/>
    <rect x="446" y="20" width="10" height="94" rx="1" fill="#3498DB"/>
    <rect x="460" y="30" width="11" height="84" rx="1" fill="#E74C3C"/>
    <rect x="475" y="20" width="12" height="94" rx="1" fill="#1ABC9C"/>
  </g>
</svg>