<svg xmlns="http://www.w3.org/2000/svg" viewBox="0 0 512 512">
  <defs>
    <linearGradient id="supremeSky" x1="0" y1="0" x2="0" y2="1">
      <stop offset="0%" stop-color="#1A237E"/>
      <stop offset="100%" stop-color="#283593"/>
    </linearGradient>
  </defs>
  <rect width="512" height="512" fill="url(#supremeSky)"/>
  <!-- Supreme Court columns - neoclassical -->
  <rect x="40" y="260" width="24" height="252" fill="#FAFAFA" opacity="0.9"/>
  <rect x="104" y="260" width="24" height="252" fill="#FAFAFA" opacity="0.9"/>
  <rect x="168" y="260" width="24" height="252" fill="#FAFAFA" opacity="0.9"/>
  <rect x="232" y="260" width="24" height="252" fill="#FAFAFA" opacity="0.9"/>
  <rect x="256" y="260" width="24" height="252" fill="#FAFAFA" opacity="0.9"/>
  <rect x="320" y="260" width="24" height="252" fill="#FAFAFA" opacity="0.9"/>
  <rect x="384" y="260" width="24" height="252" fill="#FAFAFA" opacity="0.9"/>
  <rect x="448" y="260" width="24" height="252" fill="#FAFAFA" opacity="0.9"/>
  <!-- Pediment / triangle -->
  <path d="M30 260L256 160L482 260Z" fill="#FAFAFA" opacity="0.9"/>
  <path d="M60 245L256 155L452 245Z" fill="none" stroke="#DAA520" stroke-width="2" opacity="0.5"/>
  <!-- "Equal Justice Under Law" -->
  <text x="256" y="240" text-anchor="middle" fill="#DAA520" font-size="10" font-weight="bold" opacity="0.7">EQUAL JUSTICE UNDER LAW</text>
  <!-- Steps -->
  <rect x="20" y="420" width="472" height="15" fill="#E0E0E0" opacity="0.5"/>
  <rect x="10" y="440" width="492" height="15" fill="#E0E0E0" opacity="0.4"/>
  <rect x="0" y="460" width="512" height="52" fill="#E0E0E0" opacity="0.3"/>
</svg>