<svg xmlns="http://www.w3.org/2000/svg" viewBox="0 0 512 512">
  <defs>
    <linearGradient id="rainbow" x1="0" y1="0" x2="1" y2="1">
      <stop offset="0%" stop-color="#FF0000"/>
      <stop offset="16%" stop-color="#FF8800"/>
      <stop offset="33%" stop-color="#FFFF00"/>
      <stop offset="50%" stop-color="#00CC00"/>
      <stop offset="66%" stop-color="#0088FF"/>
      <stop offset="83%" stop-color="#4400CC"/>
      <stop offset="100%" stop-color="#8800AA"/>
    </linearGradient>
  </defs>
  <!-- Rainbow gradient background -->
  <rect width="512" height="512" fill="url(#rainbow)" opacity="0.12"/>
  <!-- Rainbow arcs -->
  <path d="M-20 500Q256 80 532 500" fill="none" stroke="#FF0000" stroke-width="20" opacity="0.25"/>
  <path d="M0 500Q256 100 512 500" fill="none" stroke="#FF8800" stroke-width="20" opacity="0.25"/>
  <path d="M20 500Q256 120 492 500" fill="none" stroke="#FFFF00" stroke-width="20" opacity="0.25"/>
  <path d="M40 500Q256 140 472 500" fill="none" stroke="#00CC00" stroke-width="20" opacity="0.25"/>
  <path d="M60 500Q256 160 452 500" fill="none" stroke="#0088FF" stroke-width="20" opacity="0.25"/>
  <path d="M80 500Q256 180 432 500" fill="none" stroke="#4400CC" stroke-width="20" opacity="0.25"/>
  <path d="M100 500Q256 200 412 500" fill="none" stroke="#8800AA" stroke-width="20" opacity="0.25"/>
  <!-- Sparkle effects -->
  <circle cx="120" cy="180" r="3" fill="#FFD700" opacity="0.6"/>
  <circle cx="380" cy="150" r="4" fill="#FFD700" opacity="0.5"/>
  <circle cx="200" cy="100" r="3" fill="#FFD700" opacity="0.7"/>
  <circle cx="340" cy="200" r="2" fill="#FFD700" opacity="0.6"/>
  <circle cx="80" cy="250" r="3" fill="#FFD700" opacity="0.4"/>
  <circle cx="430" cy="230" r="3" fill="#FFD700" opacity="0.5"/>
</svg>