<svg xmlns="http://www.w3.org/2000/svg" viewBox="0 0 512 512">
  <defs>
    <linearGradient id="body3" x1="0" y1="0" x2="0" y2="1">
      <stop offset="0%" stop-color="#8B0000"/>
      <stop offset="100%" stop-color="#600000"/>
    </linearGradient>
    <linearGradient id="skin3" x1="0" y1="0" x2="0" y2="1">
      <stop offset="0%" stop-color="#FFE0BD"/>
      <stop offset="100%" stop-color="#E8C48A"/>
    </linearGradient>
  </defs>
  <!-- Scarlet robe -->
  <path d="M120 512V330c0-8 6-14 14-14h244c8 0 14 6 14 14v182H120z" fill="url(#body3)"/>
  <!-- Ermine trim -->
  <path d="M120 330Q120 320 130 320H382Q392 320 392 330" fill="none" stroke="#fff" stroke-width="8"/>
  <circle cx="150" cy="230" r="5" fill="#fff"/>
  <circle cx="175" cy="230" r="5" fill="#fff"/>
  <circle cx="200" cy="230" r="5" fill="#fff"/>
  <circle cx="312" cy="230" r="5" fill="#fff"/>
  <circle cx="337" cy="230" r="5" fill="#fff"/>
  <circle cx="362" cy="230" r="5" fill="#fff"/>
  <!-- Broad shoulders -->
  <ellipse cx="256" cy="300" rx="105" ry="60" fill="url(#body3)"/>
  <!-- White collar tabs -->
  <path d="M210 280L240 310L270 280L260 265H220L210 280Z" fill="#fff" stroke="#eee" stroke-width="1"/>
  <!-- Neck -->
  <rect x="236" y="248" width="40" height="22" rx="8" fill="url(#skin3)"/>
  <!-- Older, wise face -->
  <ellipse cx="256" cy="215" rx="58" ry="68" fill="url(#skin3)"/>
  <!-- White/grey hair -->
  <path d="M198 210Q198 140 256 140Q314 140 314 210V228Q314 238 304 238H208Q198 238 198 228Z" fill="#A9A9A9"/>
  <path d="M198 210Q190 190 195 175Q220 165 256 165Q292 165 317 175Q322 190 314 210" fill="#D3D3D3"/>
  <!-- Eyes with wisdom lines -->
  <ellipse cx="234" cy="210" rx="5" ry="5" fill="#1A0A00"/>
  <ellipse cx="278" cy="210" rx="5" ry="5" fill="#1A0A00"/>
  <ellipse cx="236" cy="208" rx="2" ry="2" fill="#fff"/>
  <ellipse cx="280" cy="208" rx="2" ry="2" fill="#fff"/>
  <!-- Crow's feet -->
  <path d="M224 212L220 210M224 208L220 208" stroke="#C5A580" stroke-width="1" fill="none"/>
  <path d="M288 212L292 210M288 208L292 208" stroke="#C5A580" stroke-width="1" fill="none"/>
  <!-- Wise gentle smile -->
  <path d="M244 232Q256 240 268 232" fill="none" stroke="#C0765A" stroke-width="2" stroke-linecap="round"/>
</svg>