<svg xmlns="http://www.w3.org/2000/svg" viewBox="0 0 512 512">
  <defs>
    <linearGradient id="body" x1="0" y1="0" x2="0" y2="1">
      <stop offset="0%" stop-color="#5DADE2"/>
      <stop offset="100%" stop-color="#2E86C1"/>
    </linearGradient>
    <linearGradient id="skin" x1="0" y1="0" x2="0" y2="1">
      <stop offset="0%" stop-color="#FDEBD0"/>
      <stop offset="100%" stop-color="#E8C9A0"/>
    </linearGradient>
  </defs>
  <!-- Body / robed torso -->
  <path d="M156 512V350c0-8 6-14 14-14h172c8 0 14 6 14 14v162H156z" fill="url(#body)"/>
  <ellipse cx="256" cy="380" rx="110" ry="20" fill="#2471A3" opacity="0.3"/>
  <!-- Shoulders -->
  <ellipse cx="256" cy="330" rx="90" ry="60" fill="url(#body)"/>
  <!-- Collar / shirt -->
  <path d="M220 310L256 345L292 310L280 290H232L220 310Z" fill="#fff" stroke="#ccc" stroke-width="2"/>
  <path d="M256 345V390" stroke="#ccc" stroke-width="2"/>
  <!-- Neck -->
  <rect x="236" y="270" width="40" height="30" rx="10" fill="url(#skin)"/>
  <!-- Head -->
  <ellipse cx="256" cy="240" rx="55" ry="65" fill="url(#skin)"/>
  <!-- Hair -->
  <path d="M201 240Q201 170 256 170Q311 170 311 240V250Q311 260 301 260H211Q201 260 201 250Z" fill="#3D2B1F"/>
  <!-- Eyes -->
  <ellipse cx="236" cy="235" rx="6" ry="7" fill="#2C1810"/>
  <ellipse cx="276" cy="235" rx="6" ry="7" fill="#2C1810"/>
  <ellipse cx="238" cy="233" rx="2" ry="2" fill="#fff"/>
  <ellipse cx="278" cy="233" rx="2" ry="2" fill="#fff"/>
  <!-- Mouth -->
  <path d="M246 258Q256 265 266 258" fill="none" stroke="#C0765A" stroke-width="2" stroke-linecap="round"/>
</svg>