<svg xmlns="http://www.w3.org/2000/svg" viewBox="0 0 512 512">
  <defs>
    <linearGradient id="body4" x1="0" y1="0" x2="0" y2="1">
      <stop offset="0%" stop-color="#1C1C3D"/>
      <stop offset="100%" stop-color="#0D0D2B"/>
    </linearGradient>
    <linearGradient id="skin4" x1="0" y1="0" x2="0" y2="1">
      <stop offset="0%" stop-color="#F0DCC0"/>
      <stop offset="100%" stop-color="#D4B896"/>
    </linearGradient>
  </defs>
  <!-- Gold-trimmed judicial robe -->
  <path d="M130 512V335c0-8 6-14 14-14h224c8 0 14 6 14 14v177H130z" fill="url(#body4)"/>
  <path d="M130 335H382" stroke="#DAA520" stroke-width="4"/>
  <path d="M140 420H372" stroke="#DAA520" stroke-width="2"/>
  <ellipse cx="256" cy="360" rx="105" ry="18" fill="#0A0A1E" opacity="0.5"/>
  <ellipse cx="256" cy="305" rx="100" ry="58" fill="url(#body4)"/>
  <!-- Gold braiding on shoulders -->
  <path d="M156 305Q156 280 170 270" fill="none" stroke="#DAA520" stroke-width="3"/>
  <path d="M356 305Q356 280 342 270" fill="none" stroke="#DAA520" stroke-width="3"/>
  <!-- White jabot -->
  <path d="M215 275L256 315L297 275L286 258H226L215 275Z" fill="#fff" stroke="#E8E8E8" stroke-width="1"/>
  <!-- Neck -->
  <rect x="236" y="245" width="40" height="20" rx="8" fill="url(#skin4)"/>
  <!-- Distinguished face -->
  <ellipse cx="256" cy="215" rx="54" ry="64" fill="url(#skin4)"/>
  <!-- Grey hair -->
  <path d="M202 210Q202 145 256 145Q310 145 310 210V225Q310 235 300 235H212Q202 235 202 225Z" fill="#808080"/>
  <path d="M202 210Q195 188 200 172Q225 160 256 160Q287 160 312 172Q317 188 310 210" fill="#A9A9A9"/>
  <!-- Eyes - intense -->
  <ellipse cx="235" cy="210" rx="5" ry="5.5" fill="#0A0A0A"/>
  <ellipse cx="277" cy="210" rx="5" ry="5.5" fill="#0A0A0A"/>
  <ellipse cx="237" cy="208" rx="2" ry="2" fill="#fff"/>
  <ellipse cx="279" cy="208" rx="2" ry="2" fill="#fff"/>
  <!-- Firm eyebrows -->
  <path d="M224 200Q236 196 246 200" fill="none" stroke="#666" stroke-width="2.5" stroke-linecap="round"/>
  <path d="M266 200Q276 196 288 200" fill="none" stroke="#666" stroke-width="2.5" stroke-linecap="round"/>
  <!-- Firm mouth -->
  <path d="M244 233H268" stroke="#C0765A" stroke-width="2" stroke-linecap="round"/>
</svg>