<svg xmlns="http://www.w3.org/2000/svg" viewBox="0 0 512 512">
  <defs>
    <linearGradient id="ermine" x1="0" y1="0" x2="0" y2="1">
      <stop offset="0%" stop-color="#8B0000"/>
      <stop offset="100%" stop-color="#500000"/>
    </linearGradient>
  </defs>
  <!-- Ermine-trimmed robe bottom -->
  <path d="M155 350V512H357V350H155Z" fill="url(#ermine)"/>
  <!-- Ermine spots -->
  <circle cx="200" cy="380" r="6" fill="#fff" opacity="0.9"/>
  <circle cx="240" cy="370" r="5" fill="#fff" opacity="0.9"/>
  <circle cx="280" cy="380" r="6" fill="#fff" opacity="0.9"/>
  <circle cx="320" cy="370" r="5" fill="#fff" opacity="0.9"/>
  <circle cx="180" cy="420" r="5" fill="#fff" opacity="0.8"/>
  <circle cx="220" cy="430" r="6" fill="#fff" opacity="0.8"/>
  <circle cx="260" cy="420" r="5" fill="#fff" opacity="0.8"/>
  <circle cx="300" cy="430" r="6" fill="#fff" opacity="0.8"/>
  <circle cx="340" cy="420" r="5" fill="#fff" opacity="0.8"/>
  <circle cx="200" cy="470" r="5" fill="#fff" opacity="0.7"/>
  <circle cx="256" cy="460" r="6" fill="#fff" opacity="0.7"/>
  <circle cx="310" cy="470" r="5" fill="#fff" opacity="0.7"/>
  <!-- Bottom ermine edge -->
  <path d="M155 505H357" stroke="#fff" stroke-width="10" opacity="0.9"/>
  <circle cx="175" cy="508" r="6" fill="#fff" opacity="0.9"/>
  <circle cx="210" cy="508" r="6" fill="#fff" opacity="0.9"/>
  <circle cx="245" cy="508" r="6" fill="#fff" opacity="0.9"/>
  <circle cx="280" cy="508" r="6" fill="#fff" opacity="0.9"/>
  <circle cx="315" cy="508" r="6" fill="#fff" opacity="0.9"/>
</svg>