<svg xmlns="http://www.w3.org/2000/svg" viewBox="0 0 512 512">
  <defs>
    <linearGradient id="crownGold" x1="0" y1="0" x2="0" y2="1">
      <stop offset="0%" stop-color="#FFD700"/>
      <stop offset="50%" stop-color="#FFA500"/>
      <stop offset="100%" stop-color="#DAA520"/>
    </linearGradient>
    <radialGradient id="gem" cx="0.5" cy="0.5" r="0.5">
      <stop offset="0%" stop-color="#FF0000"/>
      <stop offset="100%" stop-color="#8B0000"/>
    </radialGradient>
    <radialGradient id="gemB" cx="0.5" cy="0.5" r="0.5">
      <stop offset="0%" stop-color="#1E90FF"/>
      <stop offset="100%" stop-color="#00008B"/>
    </radialGradient>
  </defs>
  <!-- Crown of Justice -->
  <path d="M180 280V230L220 190L256 220L292 190L332 230V280H180Z" fill="url(#crownGold)" stroke="#B8860B" stroke-width="3"/>
  <!-- Crown points -->
  <circle cx="220" cy="190" r="8" fill="url(#gem)"/>
  <circle cx="256" cy="185" r="8" fill="url(#gemB)"/>
  <circle cx="292" cy="190" r="8" fill="url(#gem)"/>
  <!-- Band detail -->
  <path d="M185 265H327" stroke="#B8860B" stroke-width="2"/>
  <path d="M185 275H327" stroke="#B8860B" stroke-width="2"/>
  <!-- Small gems on band -->
  <circle cx="200" cy="270" r="4" fill="#FF0000"/>
  <circle cx="230" cy="270" r="4" fill="#1E90FF"/>
  <circle cx="260" cy="270" r="4" fill="#FF0000"/>
  <circle cx="290" cy="270" r="4" fill="#1E90FF"/>
  <circle cx="312" cy="270" r="4" fill="#FF0000"/>
  <!-- Shine -->
  <path d="M200 200L215 210L200 220Z" fill="#FFF8DC" opacity="0.4"/>
  <path d="M240 195L252 205L240 215Z" fill="#FFF8DC" opacity="0.4"/>
  <path d="M276 195L264 205L276 215Z" fill="#FFF8DC" opacity="0.4"/>
</svg>