<svg xmlns="http://www.w3.org/2000/svg" viewBox="0 0 512 512">
  <defs>
    <linearGradient id="sleek" x1="0" y1="0" x2="1" y2="0">
      <stop offset="0%" stop-color="#1A0D00"/>
      <stop offset="50%" stop-color="#2C1810"/>
      <stop offset="100%" stop-color="#1A0D00"/>
    </linearGradient>
  </defs>
  <!-- Modern slicked-back hair -->
  <path d="M190 230Q185 170 220 150Q250 135 256 134Q262 135 292 150Q327 170 322 230V245H190Z" fill="url(#sleek)"/>
  <!-- Side part -->
  <path d="M220 150Q230 170 225 200Q220 220 215 245" fill="none" stroke="#3D2910" stroke-width="1.5"/>
  <!-- Hair texture lines -->
  <path d="M200 180Q220 175 256 172Q292 175 312 180" fill="none" stroke="#3D2910" stroke-width="1" opacity="0.5"/>
  <path d="M195 200Q225 195 256 192Q287 195 317 200" fill="none" stroke="#3D2910" stroke-width="1" opacity="0.5"/>
  <path d="M198 222Q228 218 256 215Q284 218 314 222" fill="none" stroke="#3D2910" stroke-width="1" opacity="0.5"/>
</svg>