<svg xmlns="http://www.w3.org/2000/svg" viewBox="0 0 512 512">
  <defs>
    <linearGradient id="jwig" x1="0" y1="0" x2="0" y2="1">
      <stop offset="0%" stop-color="#FAFAFA"/>
      <stop offset="100%" stop-color="#D8D8D8"/>
    </linearGradient>
  </defs>
  <!-- Full-bottomed judge wig -->
  <path d="M170 230Q160 160 210 140Q240 125 256 123Q272 125 302 140Q352 160 342 230" fill="url(#jwig)" stroke="#C0C0C0" stroke-width="2"/>
  <!-- Massive side curls -->
  <ellipse cx="170" cy="220" rx="30" ry="45" fill="url(#jwig)" stroke="#C0C0C0" stroke-width="1.5"/>
  <ellipse cx="170" cy="270" rx="28" ry="40" fill="url(#jwig)" stroke="#C0C0C0" stroke-width="1.5"/>
  <ellipse cx="170" cy="315" rx="24" ry="35" fill="url(#jwig)" stroke="#C0C0C0" stroke-width="1.5"/>
  <ellipse cx="342" cy="220" rx="30" ry="45" fill="url(#jwig)" stroke="#C0C0C0" stroke-width="1.5"/>
  <ellipse cx="342" cy="270" rx="28" ry="40" fill="url(#jwig)" stroke="#C0C0C0" stroke-width="1.5"/>
  <ellipse cx="342" cy="315" rx="24" ry="35" fill="url(#jwig)" stroke="#C0C0C0" stroke-width="1.5"/>
  <!-- Top ornate curls -->
  <ellipse cx="210" cy="165" rx="30" ry="22" fill="url(#jwig)" stroke="#C0C0C0" stroke-width="1.5"/>
  <ellipse cx="256" cy="155" rx="30" ry="22" fill="url(#jwig)" stroke="#C0C0C0" stroke-width="1.5"/>
  <ellipse cx="302" cy="165" rx="30" ry="22" fill="url(#jwig)" stroke="#C0C0C0" stroke-width="1.5"/>
  <!-- Back tails -->
  <ellipse cx="256" cy="350" rx="40" ry="30" fill="url(#jwig)" stroke="#C0C0C0" stroke-width="1.5"/>
  <ellipse cx="256" cy="385" rx="30" ry="22" fill="url(#jwig)" stroke="#C0C0C0" stroke-width="1.5"/>
</svg>