<svg xmlns="http://www.w3.org/2000/svg" viewBox="0 0 512 512">
  <defs>
    <linearGradient id="griffinBody" x1="0" y1="0" x2="0" y2="1">
      <stop offset="0%" stop-color="#DAA520"/>
      <stop offset="100%" stop-color="#8B6914"/>
    </linearGradient>
  </defs>
  <!-- Griffin of the Crown -->
  <!-- Lion body -->
  <ellipse cx="360" cy="410" rx="40" ry="35" fill="url(#griffinBody)"/>
  <!-- Eagle head -->
  <circle cx="370" cy="340" r="22" fill="#F5F5F5"/>
  <!-- Crown on head -->
  <path d="M355 322L362 315L370 318L378 315L385 322V325H355Z" fill="#FFD700" stroke="#DAA520" stroke-width="1"/>
  <!-- Eagle eyes -->
  <circle cx="362" cy="336" r="4" fill="#FF4500"/>
  <circle cx="378" cy="336" r="4" fill="#FF4500"/>
  <circle cx="363" cy="335" r="1.5" fill="#fff"/>
  <circle cx="379" cy="335" r="1.5" fill="#fff"/>
  <!-- Beak -->
  <path d="M368 345L370 355L372 345Z" fill="#FFA500"/>
  <!-- Eagle wings -->
  <path d="M320 370Q280 310 260 250Q310 330 320 370Z" fill="#DAA520" opacity="0.7"/>
  <path d="M320 370Q300 340 280 320Q315 345 320 370Z" fill="#F0E68C" opacity="0.5"/>
  <path d="M400 370Q440 310 460 250Q410 330 400 370Z" fill="#DAA520" opacity="0.7"/>
  <path d="M400 370Q420 340 440 320Q405 345 400 370Z" fill="#F0E68C" opacity="0.5"/>
  <!-- Lion tail -->
  <path d="M315 420Q290 440 280 460" stroke="url(#griffinBody)" stroke-width="5" fill="none" stroke-linecap="round"/>
  <ellipse cx="278" cy="462" rx="8" ry="6" fill="#8B6914"/>
  <!-- Front talons -->
  <path d="M345 430L335 445L342 448L338 455L347 452L352 458L355 448" fill="#F5F5F5"/>
  <path d="M375 430L385 445L378 448L382 455L373 452L368 458L365 448" fill="#F5F5F5"/>
</svg>