<svg xmlns="http://www.w3.org/2000/svg" viewBox="0 0 512 512">
  <defs>
    <linearGradient id="phoenixFire" x1="0" y1="0" x2="0" y2="1">
      <stop offset="0%" stop-color="#FF4500"/>
      <stop offset="30%" stop-color="#FFD700"/>
      <stop offset="70%" stop-color="#FF6347"/>
      <stop offset="100%" stop-color="#FF1493"/>
    </linearGradient>
  </defs>
  <!-- Phoenix of Precedent -->
  <!-- Body -->
  <ellipse cx="370" cy="370" rx="25" ry="35" fill="url(#phoenixFire)" transform="rotate(-20,370,370)"/>
  <!-- Head -->
  <circle cx="390" cy="330" r="18" fill="#FFD700"/>
  <!-- Crest -->
  <path d="M390 312Q395 295 400 312Q405 295 410 312Z" fill="#FF4500"/>
  <!-- Eye -->
  <circle cx="396" cy="328" r="3" fill="#8B0000"/>
  <circle cx="397" cy="327" r="1" fill="#fff"/>
  <!-- Beak -->
  <path d="M408 332L418 336L408 340Z" fill="#FFA500"/>
  <!-- Wings - spread and fiery -->
  <path d="M345 350Q300 280 280 220Q320 300 345 350Z" fill="#FF6347" opacity="0.8"/>
  <path d="M345 350Q310 310 290 280Q330 330 345 350Z" fill="#FFD700" opacity="0.7"/>
  <path d="M395 350Q440 280 460 220Q420 300 395 350Z" fill="#FF6347" opacity="0.8"/>
  <path d="M395 350Q430 310 450 280Q410 330 395 350Z" fill="#FFD700" opacity="0.7"/>
  <!-- Tail feathers -->
  <path d="M355 400Q340 450 320 500" stroke="#FF4500" stroke-width="4" fill="none" opacity="0.8"/>
  <path d="M365 400Q360 455 355 510" stroke="#FFD700" stroke-width="4" fill="none" opacity="0.8"/>
  <path d="M375 400Q380 455 390 510" stroke="#FF1493" stroke-width="4" fill="none" opacity="0.8"/>
  <!-- Fire particles -->
  <circle cx="300" cy="250" r="5" fill="#FFD700" opacity="0.4"/>
  <circle cx="280" cy="300" r="3" fill="#FFA500" opacity="0.5"/>
  <circle cx="440" cy="260" r="4" fill="#FFD700" opacity="0.4"/>
</svg>