<svg xmlns="http://www.w3.org/2000/svg" viewBox="0 0 512 512">
  <!-- Tenacious Bulldog -->
  <!-- Body -->
  <ellipse cx="360" cy="420" rx="40" ry="35" fill="#C4A87C"/>
  <ellipse cx="360" cy="410" rx="30" ry="20" fill="#D4B88C" opacity="0.5"/>
  <!-- Head - big bulldog head -->
  <ellipse cx="355" cy="365" rx="32" ry="28" fill="#C4A87C"/>
  <!-- Jaw -->
  <ellipse cx="355" cy="380" rx="25" ry="15" fill="#E8D5B7"/>
  <!-- Ears -->
  <path d="M328 350Q322 330 334 340Z" fill="#8B6F47"/>
  <path d="M382 350Q388 330 376 340Z" fill="#8B6F47"/>
  <!-- Eyes -->
  <circle cx="340" cy="358" r="6" fill="#1A1A2E"/>
  <circle cx="370" cy="358" r="6" fill="#1A1A2E"/>
  <circle cx="342" cy="356" r="2" fill="#fff"/>
  <circle cx="372" cy="356" r="2" fill="#fff"/>
  <!-- Nose -->
  <ellipse cx="355" cy="370" rx="6" ry="4" fill="#2C1810"/>
  <!-- Mouth -->
  <path d="M340 378Q348 384 355 382Q362 384 370 378" fill="none" stroke="#2C1810" stroke-width="1.5" stroke-linecap="round"/>
  <!-- Collar -->
  <rect x="330" y="390" width="50" height="8" rx="2" fill="#C0392B"/>
  <circle cx="355" cy="400" r="4" fill="#DAA520"/>
  <!-- Tail stub -->
  <path d="M395 405Q405 395 398 390" fill="none" stroke="#C4A87C" stroke-width="4" stroke-linecap="round"/>
  <!-- Paws -->
  <ellipse cx="335" cy="455" rx="12" ry="6" fill="#C4A87C"/>
  <ellipse cx="385" cy="455" rx="12" ry="6" fill="#C4A87C"/>
</svg>